<svg width="100" height="100" viewBox="0 0 100 100" fill="none" xmlns="http://www.w3.org/2000/svg">
  <path d="M70 30H30C27.2386 30 25 32.2386 25 35V65C25 67.7614 27.2386 70 30 70H70C72.7614 70 75 67.7614 75 65V35C75 32.2386 72.7614 30 70 30Z" stroke="#6F4E37" stroke-width="4"/>
  <path d="M75 45H85C87.7614 45 90 47.2386 90 50C90 52.7614 87.7614 55 85 55H75" stroke="#6F4E37" stroke-width="4"/>
  <path d="M35 20V30" stroke="#6F4E37" stroke-width="4" stroke-linecap="round"/>
  <path d="M50 20V30" stroke="#6F4E37" stroke-width="4" stroke-linecap="round"/>
  <path d="M65 20V30" stroke="#6F4E37" stroke-width="4" stroke-linecap="round"/>
  <path d="M35 70V80" stroke="#6F4E37" stroke-width="4" stroke-linecap="round"/>
  <path d="M50 70V80" stroke="#6F4E37" stroke-width="4" stroke-linecap="round"/>
  <path d="M65 70V80" stroke="#6F4E37" stroke-width="4" stroke-linecap="round"/>
  <path d="M40 50C40 44.4772 44.4772 40 50 40C55.5228 40 60 44.4772 60 50C60 55.5228 55.5228 60 50 60C44.4772 60 40 55.5228 40 50Z" stroke="#E9C46A" stroke-width="3"/>
</svg> 